<svg fill="#000000" xmlns="http://www.w3.org/2000/svg"  viewBox="0 0 80 80" width="480px" height="480px"><path d="M 50.421875 6.0117188 C 46.828503 6.0692364 43.280087 7.3646841 40.285156 9.6289062 C 39.884019 9.09607 39.332176 8.5188864 38.423828 8.09375 C 36.389918 7.1407467 33.808987 7.5602071 32.248047 9.3417969 C 31.727098 9.9367293 31.525082 10.551569 31.345703 11.132812 C 29.178085 9.6388806 26.306543 9.5989172 24.357422 11.234375 C 22.79018 12.549273 22.148225 14.671801 22.544922 16.734375 C 21.46679 16.599077 20.197108 16.571383 18.697266 17.046875 C 15.233854 18.145745 11.805631 21.537251 12 26.042969 C 12.108161 28.535658 13.342803 30.813924 15.253906 32.425781 C 12.253462 33.113637 10.315042 34.421923 9.3535156 35.238281 C 5.7661522 38.282863 4.0868065 43.165664 4.1054688 48.001953 C 4.1241307 52.838242 5.8348472 57.709627 9.34375 60.755859 C 11.301164 62.455809 13.412779 63.169793 15.298828 63.595703 C 14.146245 65.463481 14.021393 67.764677 15.158203 69.539062 C 15.963584 70.796335 17.164583 71.416233 18.132812 71.710938 C 18.531147 71.83218 18.875952 71.894217 19.173828 71.935547 C 19.07052 72.880455 19.006472 73.89235 19 74.994141 L 21 75.005859 C 21.03883 68.395919 22.970817 65.365652 24.691406 63.722656 C 25.213237 63.224347 25.977808 62.631511 26.800781 62.029297 C 29.124887 63.322325 33.887823 65.46654 40.228516 65.847656 C 40.502866 66.67081 40.776928 67.494023 41.050781 68.316406 L 42 71.166016 L 42.949219 68.316406 C 43.226777 67.482897 43.50515 66.648755 43.783203 65.814453 C 46.886881 65.675549 51.707978 65.104534 57.216797 62.015625 C 58.047821 62.622869 58.821541 63.220256 59.347656 63.722656 C 61.068245 65.365652 62.998279 68.395919 63.037109 75.005859 L 65.037109 74.994141 C 65.019358 71.972317 64.590437 69.59448 63.957031 67.671875 C 70.191282 64.963707 74.209436 59.123159 74 52.966797 C 73.815982 47.532967 70.661001 44.258049 69.292969 42.976562 C 70.467976 41.851039 73.574977 38.540171 72.994141 32.898438 C 72.375505 26.895454 68.051792 24.14132 66.943359 23.494141 C 67.126809 16.200924 62.90223 9.5734817 56.357422 7.0664062 C 54.932018 6.5204729 53.453238 6.189364 51.962891 6.0644531 C 51.449186 6.0213979 50.935214 6.0035019 50.421875 6.0117188 z M 50.808594 8.0097656 C 52.450185 8.0338176 54.085583 8.3372604 55.642578 8.9335938 C 61.512918 11.182305 65.386801 17.261685 65.001953 23.943359 A 1.0001 1.0001 0 0 0 65.523438 24.878906 C 65.821798 25.040634 70.444846 27.657721 71.005859 33.101562 C 71.5632 38.515079 67.622394 42.007141 67.349609 42.240234 A 1.0001 1.0001 0 0 0 67.341797 43.751953 C 68.1362 44.446821 71.824347 47.846372 72 53.033203 C 72.177661 58.255573 68.740361 63.393252 63.220703 65.816406 C 62.479753 64.270274 61.602379 63.111799 60.728516 62.277344 C 58.48811 60.137927 53.769129 57.275594 53.5625 57.148438 C 51.050423 55.598951 49.801988 55.031655 48.900391 53.494141 C 48.210547 52.318731 48.016309 50.163638 48.021484 48.814453 C 51.249945 47.105478 53.648704 44.074653 54.53125 40.433594 C 54.695942 40.810041 54.907895 41.200992 55.191406 41.589844 C 56.474391 43.349025 58.260842 43.848161 58.761719 43.970703 A 1.0001 1.0001 0 1 0 59.238281 42.029297 C 58.897158 41.945839 57.675609 41.598975 56.808594 40.410156 C 56.076903 39.406602 56.006492 38.366242 56 37.982422 A 1.0001 1.0001 0 0 0 55.957031 37.695312 C 56.784571 37.291422 57.375 36.476446 57.375 35.5 C 57.375 35.643858 57.38537 35.45789 57.4375 35.265625 C 57.48963 35.073356 57.566533 34.819092 57.646484 34.546875 C 57.806386 34.00244 58 33.450638 58 32.800781 C 58 31.244072 56.679662 30 55.125 30 C 55.107393 30 55.106039 30.003571 55.089844 30.003906 A 1.0002993 1.0002993 0 0 0 54.708984 30.042969 C 51.271458 31.091971 48.133077 30.260393 46.8125 28.417969 C 46.523673 28.015047 46.076439 27.260293 45.998047 25.941406 A 1.0001 1.0001 0 0 0 44.462891 25.15625 C 44.007414 25.446798 43.116652 25.924252 41.933594 26.001953 C 40.153276 26.119068 38.52902 25.184731 37.808594 24.398438 A 1.0001 1.0001 0 0 0 37.707031 24.277344 C 37.228832 23.699151 36.903576 22.892648 36.8125 21.908203 A 1.0001 1.0001 0 0 0 36.648438 21.433594 L 36.751953 20.857422 L 36.138672 20.203125 L 35.792969 20.140625 L 34.990234 20.541016 L 34.833984 21.423828 L 34.927734 21.525391 A 1.0001 1.0001 0 0 0 34.820312 22.091797 C 34.929908 23.276418 35.315878 24.364956 35.960938 25.261719 C 35.874566 25.901425 35.669359 26.68613 35.166016 27.449219 C 34.269449 28.808997 32.857626 29.456994 31.564453 29.763672 C 30.271281 30.07035 29.131663 30.006335 29.070312 30.001953 A 1.0005207 1.0005207 0 0 0 28.914062 30.003906 C 28.896256 30.003495 28.894538 30 28.875 30 C 27.320338 30 26 31.244072 26 32.800781 C 26 32.82167 26.003514 32.840639 26.003906 32.861328 A 1.0001 1.0001 0 0 0 26.03125 33.253906 C 26.053973 33.426535 26.088986 33.591495 26.128906 33.753906 C 26.237175 34.523275 26.282033 36.071121 25.224609 37.369141 C 24.006918 38.864837 22.227063 38.988476 21.951172 39.001953 A 1.0001 1.0001 0 1 0 22.048828 40.998047 C 22.468937 40.977527 24.997082 40.815163 26.775391 38.630859 C 27.110267 38.219789 27.349607 37.798945 27.550781 37.378906 C 27.981636 37.726248 28.521782 37.947974 29.107422 37.96875 C 29.334381 42.70167 32.06171 46.756478 36.017578 48.832031 C 36.020308 50.182889 35.823334 52.324225 35.136719 53.494141 C 34.235121 55.031655 32.986686 55.59895 30.474609 57.148438 C 30.265817 57.276904 25.548449 60.138452 23.308594 62.277344 C 21.790086 63.727371 20.240945 66.098848 19.482422 69.955078 C 19.262135 69.926612 18.998805 69.883297 18.714844 69.796875 C 18.042824 69.592329 17.321416 69.209665 16.841797 68.460938 C 15.995525 67.140036 16.229474 65.090642 17.683594 63.730469 A 1.0001 1.0001 0 0 0 17.136719 62.009766 C 15.239043 61.749707 12.751526 61.063819 10.65625 59.244141 C 7.7111528 56.687373 6.1223065 52.357602 6.1054688 47.994141 C 6.0886308 43.630679 7.6378482 39.315137 10.646484 36.761719 C 11.673356 35.889881 13.937504 34.277849 18.068359 33.998047 A 1.0001 1.0001 0 0 0 18.404297 32.085938 C 15.820881 30.941308 14.112235 28.543607 14 25.957031 C 13.852369 22.534749 16.620146 19.804255 19.302734 18.953125 C 21.194486 18.353386 22.904897 18.720896 23.71875 18.958984 A 1.0001 1.0001 0 0 0 24.886719 17.537109 C 23.988746 15.819177 24.413573 13.796746 25.642578 12.765625 C 27.117393 11.528145 29.75092 11.722209 31.207031 13.611328 A 1.0001 1.0001 0 0 0 33 12.958984 C 32.98658 12.632218 32.9969 11.520494 33.751953 10.658203 C 34.667013 9.613793 36.366082 9.3392533 37.576172 9.90625 C 38.486131 10.332141 38.949322 11.134973 39.105469 11.447266 A 1.0001 1.0001 0 0 0 40.652344 11.757812 C 43.55554 9.2555031 47.197094 7.9568513 50.808594 8.0097656 z M 39 13 L 38.199219 13.402344 L 38.041016 14.283203 L 38.652344 14.9375 L 39 15 L 39.800781 14.597656 L 39.958984 13.716797 L 39.347656 13.0625 L 39 13 z M 36.751953 16.287109 L 35.951172 16.689453 L 35.792969 17.570312 L 36.404297 18.224609 L 36.751953 18.287109 L 37.552734 17.886719 L 37.710938 17.003906 L 37.097656 16.349609 L 36.751953 16.287109 z M 37.642578 26.837891 C 38.806471 27.590222 40.331972 28.112144 42.066406 27.998047 C 42.960098 27.939347 43.693672 27.719856 44.304688 27.46875 C 44.559028 28.401224 44.892604 29.170643 45.1875 29.582031 C 46.798391 31.829492 49.780173 32.777653 53 32.412109 L 53 33.304688 L 54.505859 32.423828 C 54.763271 32.273148 55.000659 32.139974 55.167969 32.054688 C 55.189159 32.043887 55.194211 32.042323 55.212891 32.033203 C 55.672602 32.079607 56 32.399535 56 32.800781 C 56 32.875921 55.881114 33.462857 55.728516 33.982422 C 55.652216 34.242205 55.572874 34.502206 55.507812 34.742188 C 55.442751 34.982169 55.375 35.146642 55.375 35.5 C 55.375 35.764393 55.156381 36 54.8125 36 L 53 36 L 53 37.367188 C 53 42.789366 49.089008 47.269071 43.941406 48.1875 L 43.658203 48.236328 L 43.443359 48.431641 C 43.05178 48.78762 42.558016 49 42 49 C 41.441984 49 40.948039 48.788155 40.556641 48.431641 L 40.34375 48.236328 L 40.058594 48.185547 C 34.911121 47.268058 31 42.789367 31 37.367188 L 31 36 L 29.1875 36 C 28.845222 36 28.625 35.764393 28.625 35.5 C 28.625 35.146642 28.55725 34.982169 28.492188 34.742188 C 28.427128 34.502206 28.347783 34.242205 28.271484 33.982422 C 28.118886 33.462857 28 32.875925 28 32.800781 C 28 32.399535 28.3274 32.079612 28.787109 32.033203 C 28.805789 32.042303 28.810841 32.043887 28.832031 32.054688 C 28.999341 32.139978 29.236729 32.273148 29.494141 32.423828 L 31 33.304688 L 31 31.898438 C 31.321629 31.853293 31.662329 31.797037 32.025391 31.710938 C 33.621718 31.332366 35.568551 30.470003 36.833984 28.550781 C 37.216769 27.970466 37.465714 27.388664 37.642578 26.837891 z M 24.847656 41.712891 L 24.046875 42.115234 L 23.888672 42.996094 L 24.501953 43.650391 L 24.847656 43.712891 L 25.650391 43.3125 L 25.806641 42.429688 L 25.195312 41.775391 L 24.847656 41.712891 z M 56.380859 44.949219 L 55.580078 45.349609 L 55.421875 46.232422 L 56.035156 46.886719 L 56.380859 46.949219 L 57.181641 46.546875 L 57.339844 45.666016 L 56.728516 45.011719 L 56.380859 44.949219 z M 25.378906 45.599609 L 24.578125 46.001953 L 24.419922 46.882812 L 25.03125 47.537109 L 25.378906 47.599609 L 26.179688 47.197266 L 26.337891 46.316406 L 25.726562 45.662109 L 25.378906 45.599609 z M 55.964844 48.849609 L 55.164062 49.251953 L 55.005859 50.132812 L 55.619141 50.787109 L 55.964844 50.849609 L 56.765625 50.449219 L 56.923828 49.566406 L 56.3125 48.912109 L 55.964844 48.849609 z M 23.722656 49.191406 L 22.919922 49.591797 L 22.763672 50.474609 L 23.375 51.128906 L 23.722656 51.191406 L 24.523438 50.789062 L 24.681641 49.908203 L 24.068359 49.251953 L 23.722656 49.191406 z M 46 49.671875 C 46.040043 51.153606 46.294908 53.004958 47.175781 54.505859 C 48.378184 56.556345 50.077749 57.349049 52.513672 58.851562 C 52.620282 58.917169 53.914246 59.725069 55.400391 60.732422 C 49.690402 63.690945 44.445308 64 42 64 C 35.920935 64 31.250861 62.098775 28.625 60.742188 C 30.115825 59.730934 31.416532 58.917351 31.523438 58.851562 L 31.525391 58.851562 C 33.961314 57.349049 35.660879 56.556345 36.863281 54.505859 C 37.742214 53.008266 37.998712 51.161769 38.039062 49.681641 C 38.497399 49.829329 38.963398 49.962008 39.443359 50.058594 C 40.147243 50.620412 41.022065 51 42 51 C 42.973713 51 43.842622 50.620911 44.544922 50.064453 C 45.042927 49.964657 45.525296 49.826638 46 49.671875 z M 58.234375 52.042969 L 57.433594 52.443359 L 57.275391 53.326172 L 57.888672 53.980469 L 58.234375 54.042969 L 59.035156 53.640625 L 59.193359 52.759766 L 58.582031 52.105469 L 58.234375 52.042969 z M 24.871094 52.109375 L 24.070312 52.511719 L 23.912109 53.392578 L 24.523438 54.046875 L 24.871094 54.109375 L 25.671875 53.707031 L 25.830078 52.826172 L 25.21875 52.171875 L 24.871094 52.109375 z M 23.625 55.644531 L 22.822266 56.044922 L 22.666016 56.927734 L 23.277344 57.582031 L 23.625 57.644531 L 24.425781 57.242188 L 24.583984 56.361328 L 23.970703 55.707031 L 23.625 55.644531 z"/></svg>